<svg width="558" height="800" viewBox="0 0 558 800" fill="none" xmlns="http://www.w3.org/2000/svg">
<path d="M36.5758 800H521.424C541.507 800 557.788 783.719 557.788 763.636V351.515C557.788 331.433 541.507 315.152 521.424 315.152H485.061V206.061C485.061 92.4388 392.622 0 279 0C165.378 0 72.9394 92.4388 72.9394 206.061V315.152H36.5758C16.4934 315.152 0.212158 331.433 0.212158 351.515V763.636C0.212158 783.719 16.4934 800 36.5758 800ZM315.364 569.663V618.182C315.364 638.264 299.082 654.545 279 654.545C258.918 654.545 242.636 638.264 242.636 618.182V569.663C227.926 558.596 218.394 540.999 218.394 521.212C218.394 487.794 245.582 460.606 279 460.606C312.418 460.606 339.606 487.794 339.606 521.212C339.606 540.999 330.074 558.596 315.364 569.663ZM145.667 206.061C145.667 132.541 205.48 72.7273 279 72.7273C352.52 72.7273 412.333 132.541 412.333 206.061V315.152H145.667V206.061Z" fill="white"/>
</svg>
