<svg width="5000" height="5000" viewBox="0 0 5000 5000" fill="none" xmlns="http://www.w3.org/2000/svg">
<mask id="path-1-inside-1_599_4" fill="white">
<path d="M4000 1082H1037.82L1970.59 2254.27L2285.71 1813.09L2121.85 1611.41H2626.05L1000 3918.13H3962.19L3029.41 2733.26L2701.68 3187.04L2865.55 3388.72H2373.95L4000 1082Z"/>
</mask>
<path d="M1037.82 1082V82H-1035.83L255.307 1704.64L1037.82 1082ZM4000 1082L4817.34 1658.16L5928.4 82H4000V1082ZM2373.95 3388.72L1556.61 2812.57L445.549 4388.72H2373.95V3388.72ZM2865.55 3388.72V4388.72H4966.52L3641.66 2758.13L2865.55 3388.72ZM2701.68 3187.04L1891 2601.55L1442.29 3222.84L1925.57 3817.63L2701.68 3187.04ZM3029.41 2733.26L3815.15 2114.7L2995.02 1072.91L2218.73 2147.77L3029.41 2733.26ZM3962.19 3918.13V4918.13H6022.11L4747.92 3299.57L3962.19 3918.13ZM1000 3918.13L182.661 3341.98L-928.401 4918.13H1000V3918.13ZM2626.05 1611.41L3443.39 2187.57L4554.45 611.412H2626.05V1611.41ZM2121.85 1611.41V611.412H20.8777L1345.73 2242L2121.85 1611.41ZM2285.71 1813.09L3099.45 2394.33L3542.49 1774.08L3061.83 1182.5L2285.71 1813.09ZM1970.59 2254.27L1188.08 2876.91L2013.65 3914.45L2784.32 2835.51L1970.59 2254.27ZM1037.82 2082H4000V82H1037.82V2082ZM3182.66 505.843L1556.61 2812.57L3191.29 3964.88L4817.34 1658.16L3182.66 505.843ZM2373.95 4388.72H2865.55V2388.72H2373.95V4388.72ZM3641.66 2758.13L3477.79 2556.45L1925.57 3817.63L2089.43 4019.32L3641.66 2758.13ZM3512.36 3772.53L3840.09 3318.75L2218.73 2147.77L1891 2601.55L3512.36 3772.53ZM2243.67 3351.82L3176.45 4536.69L4747.92 3299.57L3815.15 2114.7L2243.67 3351.82ZM3962.19 2918.13H1000V4918.13H3962.19V2918.13ZM1817.34 4494.29L3443.39 2187.57L1808.71 1035.25L182.661 3341.98L1817.34 4494.29ZM2626.05 611.412H2121.85V2611.41H2626.05V611.412ZM1345.73 2242L1509.6 2443.69L3061.83 1182.5L2897.96 980.819L1345.73 2242ZM1471.98 1231.85L1156.85 1673.03L2784.32 2835.51L3099.45 2394.33L1471.98 1231.85ZM2753.1 1631.63L1820.32 459.359L255.307 1704.64L1188.08 2876.91L2753.1 1631.63Z" fill="#FAAD2C" mask="url(#path-1-inside-1_599_4)"/>
</svg>
